<svg id="visual" viewBox="0 0 900 600" width="900" height="600" xmlns="http://www.w3.org/2000/svg" xmlns:xlink="http://www.w3.org/1999/xlink" version="1.1"><rect x="0" y="0" width="900" height="600" fill="#715DF2"></rect><defs><linearGradient id="grad1_0" x1="33.3%" y1="0%" x2="100%" y2="100%"><stop offset="20%" stop-color="#001122" stop-opacity="1"></stop><stop offset="80%" stop-color="#001122" stop-opacity="1"></stop></linearGradient></defs><defs><linearGradient id="grad1_1" x1="33.3%" y1="0%" x2="100%" y2="100%"><stop offset="20%" stop-color="#001122" stop-opacity="1"></stop><stop offset="80%" stop-color="#002854" stop-opacity="1"></stop></linearGradient></defs><defs><linearGradient id="grad1_2" x1="33.3%" y1="0%" x2="100%" y2="100%"><stop offset="20%" stop-color="#003d8a" stop-opacity="1"></stop><stop offset="80%" stop-color="#002854" stop-opacity="1"></stop></linearGradient></defs><defs><linearGradient id="grad1_3" x1="33.3%" y1="0%" x2="100%" y2="100%"><stop offset="20%" stop-color="#003d8a" stop-opacity="1"></stop><stop offset="80%" stop-color="#3150bf" stop-opacity="1"></stop></linearGradient></defs><defs><linearGradient id="grad1_4" x1="33.3%" y1="0%" x2="100%" y2="100%"><stop offset="20%" stop-color="#715df2" stop-opacity="1"></stop><stop offset="80%" stop-color="#3150bf" stop-opacity="1"></stop></linearGradient></defs><defs><linearGradient id="grad2_0" x1="0%" y1="0%" x2="66.7%" y2="100%"><stop offset="20%" stop-color="#001122" stop-opacity="1"></stop><stop offset="80%" stop-color="#001122" stop-opacity="1"></stop></linearGradient></defs><defs><linearGradient id="grad2_1" x1="0%" y1="0%" x2="66.7%" y2="100%"><stop offset="20%" stop-color="#002854" stop-opacity="1"></stop><stop offset="80%" stop-color="#001122" stop-opacity="1"></stop></linearGradient></defs><defs><linearGradient id="grad2_2" x1="0%" y1="0%" x2="66.7%" y2="100%"><stop offset="20%" stop-color="#002854" stop-opacity="1"></stop><stop offset="80%" stop-color="#003d8a" stop-opacity="1"></stop></linearGradient></defs><defs><linearGradient id="grad2_3" x1="0%" y1="0%" x2="66.7%" y2="100%"><stop offset="20%" stop-color="#3150bf" stop-opacity="1"></stop><stop offset="80%" stop-color="#003d8a" stop-opacity="1"></stop></linearGradient></defs><defs><linearGradient id="grad2_4" x1="0%" y1="0%" x2="66.7%" y2="100%"><stop offset="20%" stop-color="#3150bf" stop-opacity="1"></stop><stop offset="80%" stop-color="#715df2" stop-opacity="1"></stop></linearGradient></defs><g transform="translate(900, 0)"><path d="M0 405.6C-72.5 395.9 -145 386.2 -202.8 351.3C-260.6 316.4 -303.8 256.2 -335.2 193.5C-366.5 130.8 -386.1 65.4 -405.6 0L0 0Z" fill="#5057d9"></path><path d="M0 324.5C-58 316.7 -116 309 -162.2 281C-208.5 253.1 -243 205 -268.1 154.8C-293.2 104.6 -308.9 52.3 -324.5 0L0 0Z" fill="#0e47a5"></path><path d="M0 243.4C-43.5 237.5 -87 231.7 -121.7 210.8C-156.4 189.8 -182.3 153.7 -201.1 116.1C-219.9 78.5 -231.6 39.2 -243.4 0L0 0Z" fill="#00336f"></path><path d="M0 162.2C-29 158.4 -58 154.5 -81.1 140.5C-104.3 126.5 -121.5 102.5 -134.1 77.4C-146.6 52.3 -154.4 26.2 -162.2 0L0 0Z" fill="#001d3a"></path><path d="M0 81.1C-14.5 79.2 -29 77.2 -40.6 70.3C-52.1 63.3 -60.8 51.2 -67 38.7C-73.3 26.2 -77.2 13.1 -81.1 0L0 0Z" fill="#001122"></path></g><g transform="translate(0, 600)"><path d="M0 -405.6C75.1 -397.4 150.3 -389.3 202.8 -351.3C255.3 -313.3 285.2 -245.5 315.2 -182C345.3 -118.5 375.4 -59.2 405.6 0L0 0Z" fill="#5057d9"></path><path d="M0 -324.5C60.1 -318 120.2 -311.4 162.2 -281C204.3 -250.6 228.2 -196.4 252.2 -145.6C276.2 -94.8 300.4 -47.4 324.5 0L0 0Z" fill="#0e47a5"></path><path d="M0 -243.4C45.1 -238.5 90.2 -233.6 121.7 -210.8C153.2 -188 171.1 -147.3 189.1 -109.2C207.2 -71.1 225.3 -35.5 243.4 0L0 0Z" fill="#00336f"></path><path d="M0 -162.2C30.1 -159 60.1 -155.7 81.1 -140.5C102.1 -125.3 114.1 -98.2 126.1 -72.8C138.1 -47.4 150.2 -23.7 162.2 0L0 0Z" fill="#001d3a"></path><path d="M0 -81.1C15 -79.5 30.1 -77.9 40.6 -70.3C51.1 -62.7 57 -49.1 63 -36.4C69.1 -23.7 75.1 -11.8 81.1 0L0 0Z" fill="#001122"></path></g></svg>