<svg id="e8QNcjstDbS1" xmlns="http://www.w3.org/2000/svg" xmlns:xlink="http://www.w3.org/1999/xlink" viewBox="0 0 900 600" shape-rendering="geometricPrecision" text-rendering="geometricPrecision"><path d="M900,265v366.781618h-900L0,315l33-48l34,91l33-14l33-129l34-86l33,92l33-115l34-31l33,58l33,224l34-253l33,271l33,1l34-250l33,229l33-249l34,141l33,145l33-153l34,94l33-119l33,86l34-35l33,84l33-45l34,24l33-63Z" transform="matrix(1 0 0 0.923094 0-13.824067)" fill="#06f" stroke="#06f" stroke-width="99" stroke-linecap="square" stroke-linejoin="bevel"/></svg>
